# xmcd CD database file
#
# Track frame offsets:
#	150
#	2475
#	22275
#	41475
#	57750
#	78900
#	97425
#	117900
#
# Disc length: 1834 seconds
#
# Revision: 1
# Processed by: cddbd v1.5.1PL2 Copyright (c) Steve Scherf et al.
# Submitted via: freeDBTagger 0.8.2.1
#
DISCID=61072808
DTITLE=Madonna - poceluy menya
DYEAR=1991
DGENRE=rock
TTITLE0=Intro
TTITLE1=Ya Tak Hochu
TTITLE2=Poceluy Menya
TTITLE3=Angel-Hranitel'
TTITLE4=Nu, Gde Ge Ti, Mal'chik Moy
TTITLE5=Gde Etot Paren'
TTITLE6=Moya Lyubov'
TTITLE7=Proshchay
EXTD=
EXTT0=
EXTT1=
EXTT2=
EXTT3=
EXTT4=
EXTT5=
EXTT6=
EXTT7=
PLAYORDER=
